# xmcd
#
# Track frame offsets:
#	187
#	17482
#	36292
#	48780
#	61797
#	74712
#	91035
#	106787
#	127025
#	144265
#
# Disc length: 2100 seconds
#
# Revision: 5
# Processed by: cddbd v1.5.2PL0 Copyright (c) Steve Scherf et al.
# Submitted via: EZCDAudioConverter 6.0.5.1
#
DISCID=7c08320a
DTITLE=Lorrie Morgan - Watch Me
DYEAR=1992
DGENRE=Country
TTITLE0=Half Enough
TTITLE1=I Guess You Had To Be There
TTITLE2=What Part Of No
TTITLE3=You Leave Me Like This
TTITLE4=Someone To Call Me Darling
TTITLE5=Watch Me
TTITLE6=Behind His Last Goodbye
TTITLE7=It's A Heartache
TTITLE8=From Our House To Yours
TTITLE9=She's Takin' Him Back Again
EXTD=
EXTT0=
EXTT1=
EXTT2=
EXTT3=
EXTT4=
EXTT5=
EXTT6=
EXTT7=
EXTT8=
EXTT9=
PLAYORDER=
